<svg xmlns="http://www.w3.org/2000/svg" xmlns:xlink="http://www.w3.org/1999/xlink" viewBox="0 0 45 45"><path d="M 2 45 C 0.895 45 0 45 0 45 L 0 0 C 0 0 0.895 0 2 0 L 43 0 C 44.105 0 45 0 45 0 L 45 45 C 45 45 44.105 45 43 45 Z" fill="rgb(252,65,75)"></path><path d="M 36.327 18.605 C 36.365 18.202 36.388 17.796 36.388 17.384 C 36.388 9.992 29.976 4 22.065 4 C 16.008 4 10.829 7.512 8.735 12.476 C 8.735 12.479 8.735 12.482 8.735 12.485 C 8.153 13.969 7.854 15.549 7.856 17.142 L 7.856 18.388 L 7.789 18.401 C 7.795 18.469 7.801 18.537 7.807 18.605 C 7.002 18.742 6.247 19.091 5.619 19.615 C 4.992 20.139 4.515 20.82 4.236 21.588 C 4.236 21.588 4.236 21.593 4.236 21.595 C 4.08 22.08 4 22.587 4 23.097 C 4 25.62 5.894 27.678 8.295 27.867 C 8.857 31.228 10.561 34.291 13.12 36.542 C 15.209 38.382 17.799 39.558 20.559 39.918 L 20.614 39.925 C 22.512 40.124 24.43 39.927 26.248 39.346 C 28.066 38.765 29.744 37.814 31.175 36.551 C 33.703 34.329 35.387 31.303 35.943 27.983 C 36.091 27.972 36.237 27.953 36.38 27.927 C 36.38 27.908 36.387 27.889 36.391 27.869 C 36.571 27.855 36.75 27.83 36.927 27.794 C 38.813 27.208 40.186 25.406 40.186 23.268 C 40.193 20.909 38.516 18.962 36.327 18.605 Z M 23.585 8.038 C 23.731 8.034 23.875 8.073 23.998 8.151 C 24.122 8.229 24.219 8.342 24.278 8.476 C 24.337 8.61 24.355 8.758 24.329 8.901 C 24.303 9.045 24.235 9.178 24.133 9.283 C 24.032 9.387 23.901 9.459 23.758 9.49 C 23.615 9.52 23.467 9.506 23.331 9.452 C 23.196 9.397 23.08 9.303 22.999 9.182 C 22.917 9.061 22.873 8.918 22.873 8.772 C 22.87 8.58 22.944 8.396 23.077 8.258 C 23.211 8.12 23.393 8.041 23.585 8.038 Z M 23.585 10.483 C 23.731 10.479 23.875 10.518 23.998 10.596 C 24.122 10.674 24.219 10.787 24.278 10.921 C 24.337 11.055 24.355 11.203 24.329 11.346 C 24.303 11.49 24.235 11.623 24.133 11.728 C 24.032 11.832 23.901 11.904 23.758 11.934 C 23.615 11.965 23.467 11.951 23.331 11.897 C 23.196 11.842 23.08 11.748 22.999 11.627 C 22.917 11.506 22.873 11.363 22.873 11.217 C 22.87 11.025 22.944 10.84 23.077 10.703 C 23.211 10.565 23.393 10.486 23.585 10.483 Z M 23.585 12.928 C 23.731 12.924 23.875 12.963 23.998 13.041 C 24.122 13.119 24.219 13.232 24.278 13.366 C 24.337 13.5 24.355 13.648 24.329 13.791 C 24.303 13.935 24.235 14.068 24.133 14.173 C 24.032 14.277 23.901 14.349 23.758 14.38 C 23.615 14.41 23.467 14.396 23.331 14.342 C 23.196 14.287 23.08 14.193 22.999 14.072 C 22.917 13.951 22.873 13.808 22.873 13.662 C 22.87 13.47 22.944 13.285 23.077 13.148 C 23.211 13.01 23.393 12.931 23.585 12.928 Z M 20.74 8.038 C 20.886 8.034 21.03 8.073 21.153 8.15 C 21.277 8.228 21.375 8.341 21.434 8.475 C 21.493 8.608 21.511 8.756 21.485 8.9 C 21.46 9.044 21.392 9.177 21.29 9.282 C 21.189 9.387 21.058 9.459 20.915 9.489 C 20.772 9.52 20.624 9.507 20.488 9.452 C 20.353 9.397 20.237 9.303 20.155 9.182 C 20.073 9.061 20.03 8.918 20.03 8.772 C 20.027 8.581 20.1 8.396 20.233 8.259 C 20.366 8.121 20.548 8.042 20.74 8.038 Z M 20.74 10.483 C 20.886 10.479 21.03 10.518 21.153 10.595 C 21.277 10.673 21.375 10.786 21.434 10.92 C 21.493 11.053 21.511 11.201 21.485 11.345 C 21.46 11.489 21.392 11.622 21.29 11.727 C 21.189 11.832 21.058 11.904 20.915 11.934 C 20.772 11.965 20.624 11.951 20.488 11.897 C 20.353 11.842 20.237 11.748 20.155 11.627 C 20.073 11.506 20.03 11.363 20.03 11.217 C 20.027 11.026 20.1 10.841 20.233 10.704 C 20.366 10.566 20.548 10.487 20.74 10.483 Z M 20.74 12.928 C 20.885 12.924 21.029 12.963 21.153 13.041 C 21.276 13.119 21.374 13.232 21.433 13.366 C 21.491 13.5 21.509 13.648 21.483 13.791 C 21.457 13.935 21.389 14.068 21.288 14.173 C 21.186 14.277 21.055 14.349 20.912 14.38 C 20.77 14.41 20.621 14.396 20.486 14.342 C 20.35 14.287 20.235 14.193 20.153 14.072 C 20.071 13.951 20.028 13.808 20.028 13.662 C 20.025 13.47 20.098 13.285 20.232 13.148 C 20.365 13.01 20.548 12.931 20.74 12.928 Z M 13.052 21.095 C 12.988 21.163 12.9 21.204 12.807 21.209 C 12.714 21.214 12.622 21.183 12.551 21.123 C 12.479 21.062 12.434 20.976 12.425 20.884 C 12.415 20.791 12.441 20.697 12.498 20.623 C 12.572 20.537 14.29 18.538 16.491 18.538 L 16.627 18.538 C 17.891 18.585 19.029 19.292 20.01 20.642 C 20.049 20.696 20.072 20.76 20.078 20.827 C 20.083 20.893 20.07 20.96 20.039 21.02 C 20.009 21.079 19.963 21.129 19.906 21.164 C 19.849 21.199 19.784 21.218 19.717 21.218 C 19.66 21.218 19.604 21.205 19.552 21.179 C 19.501 21.153 19.457 21.116 19.423 21.069 C 18.58 19.911 17.632 19.302 16.603 19.263 C 14.698 19.197 13.07 21.076 13.052 21.095 Z M 21.953 34.823 C 19.219 34.823 17.003 32.538 17.003 29.731 C 17.007 29.638 17.048 29.551 17.115 29.486 C 17.183 29.422 17.272 29.387 17.365 29.387 C 17.458 29.387 17.548 29.422 17.615 29.486 C 17.683 29.551 17.723 29.638 17.728 29.731 C 17.728 32.14 19.624 34.099 21.953 34.099 C 24.282 34.099 26.178 32.14 26.178 29.731 C 26.178 29.635 26.216 29.542 26.284 29.474 C 26.353 29.406 26.445 29.368 26.541 29.368 C 26.637 29.368 26.73 29.406 26.798 29.474 C 26.866 29.542 26.904 29.635 26.904 29.731 C 26.904 32.538 24.683 34.823 21.953 34.823 Z M 31.677 21.151 C 31.615 21.195 31.541 21.219 31.465 21.219 C 31.408 21.219 31.352 21.206 31.301 21.18 C 31.25 21.154 31.205 21.117 31.172 21.07 C 30.328 19.911 29.38 19.303 28.348 19.264 C 26.44 19.194 24.817 21.072 24.801 21.091 C 24.737 21.159 24.649 21.2 24.555 21.205 C 24.462 21.211 24.37 21.18 24.299 21.119 C 24.228 21.058 24.183 20.973 24.173 20.88 C 24.164 20.787 24.19 20.694 24.247 20.62 C 24.322 20.531 26.105 18.451 28.375 18.537 C 29.639 18.584 30.777 19.291 31.758 20.641 C 31.787 20.68 31.807 20.724 31.819 20.771 C 31.83 20.818 31.832 20.866 31.824 20.913 C 31.817 20.961 31.8 21.006 31.775 21.047 C 31.749 21.088 31.716 21.124 31.677 21.152 Z" fill="rgb(255,232,136)"></path></svg>